<mxfile host="www.draw.io" modified="2020-03-06T00:13:34.211Z" agent="Mozilla/5.0 (Windows NT 10.0; Win64; x64; rv:74.0) Gecko/20100101 Firefox/74.0" etag="UpCsSIHXbAInTx9pGg2x" version="12.8.1" type="gitlab">
  <diagram id="frb6UVW6x_-703xL0Cf6" name="Page-1">
    <mxGraphModel dx="1422" dy="5769" grid="1" gridSize="10" guides="1" tooltips="1" connect="1" arrows="1" fold="1" page="1" pageScale="1" pageWidth="1000" pageHeight="500" math="0" shadow="0">
      <root>
        <mxCell id="0" />
        <mxCell id="1" parent="0" />
        <mxCell id="-BLUwrKhegGBMdVgift5-19" style="edgeStyle=orthogonalEdgeStyle;rounded=0;orthogonalLoop=1;jettySize=auto;html=1;entryX=0.5;entryY=0;entryDx=0;entryDy=0;" parent="1" source="-BLUwrKhegGBMdVgift5-1" target="-BLUwrKhegGBMdVgift5-9" edge="1">
          <mxGeometry relative="1" as="geometry" />
        </mxCell>
        <mxCell id="-BLUwrKhegGBMdVgift5-1" value="Start" style="ellipse;whiteSpace=wrap;html=1;" parent="1" vertex="1">
          <mxGeometry x="560" y="-4790" width="120" height="80" as="geometry" />
        </mxCell>
        <mxCell id="-BLUwrKhegGBMdVgift5-21" style="edgeStyle=orthogonalEdgeStyle;rounded=0;orthogonalLoop=1;jettySize=auto;html=1;" parent="1" source="-BLUwrKhegGBMdVgift5-2" target="-BLUwrKhegGBMdVgift5-4" edge="1">
          <mxGeometry relative="1" as="geometry" />
        </mxCell>
        <mxCell id="-BLUwrKhegGBMdVgift5-2" value="Retrieve data for the requested ingredient" style="rounded=0;whiteSpace=wrap;html=1;" parent="1" vertex="1">
          <mxGeometry x="560" y="-4570" width="120" height="60" as="geometry" />
        </mxCell>
        <mxCell id="-BLUwrKhegGBMdVgift5-23" style="edgeStyle=orthogonalEdgeStyle;rounded=0;orthogonalLoop=1;jettySize=auto;html=1;" parent="1" source="-BLUwrKhegGBMdVgift5-4" target="-BLUwrKhegGBMdVgift5-6" edge="1">
          <mxGeometry relative="1" as="geometry" />
        </mxCell>
        <mxCell id="-BLUwrKhegGBMdVgift5-29" style="edgeStyle=orthogonalEdgeStyle;rounded=0;orthogonalLoop=1;jettySize=auto;html=1;entryX=0.5;entryY=0;entryDx=0;entryDy=0;" parent="1" source="-BLUwrKhegGBMdVgift5-4" target="-BLUwrKhegGBMdVgift5-7" edge="1">
          <mxGeometry relative="1" as="geometry" />
        </mxCell>
        <mxCell id="-BLUwrKhegGBMdVgift5-4" value="Is data available?" style="rhombus;whiteSpace=wrap;html=1;" parent="1" vertex="1">
          <mxGeometry x="535" y="-4460" width="170" height="140" as="geometry" />
        </mxCell>
        <mxCell id="-BLUwrKhegGBMdVgift5-28" style="edgeStyle=orthogonalEdgeStyle;rounded=0;orthogonalLoop=1;jettySize=auto;html=1;" parent="1" source="-BLUwrKhegGBMdVgift5-6" target="-BLUwrKhegGBMdVgift5-8" edge="1">
          <mxGeometry relative="1" as="geometry">
            <mxPoint x="710" y="-3870" as="targetPoint" />
            <Array as="points">
              <mxPoint x="875" y="-3910" />
            </Array>
          </mxGeometry>
        </mxCell>
        <mxCell id="-BLUwrKhegGBMdVgift5-6" value="Print: &quot;ingredient data could not be found&quot;" style="rounded=0;whiteSpace=wrap;html=1;" parent="1" vertex="1">
          <mxGeometry x="800" y="-4430" width="150" height="80" as="geometry" />
        </mxCell>
        <mxCell id="-BLUwrKhegGBMdVgift5-30" style="edgeStyle=orthogonalEdgeStyle;rounded=0;orthogonalLoop=1;jettySize=auto;html=1;entryX=0.5;entryY=0;entryDx=0;entryDy=0;" parent="1" source="-BLUwrKhegGBMdVgift5-7" target="-BLUwrKhegGBMdVgift5-10" edge="1">
          <mxGeometry relative="1" as="geometry" />
        </mxCell>
        <mxCell id="-BLUwrKhegGBMdVgift5-7" value="Render data on screen: Name, Image, Description" style="rounded=0;whiteSpace=wrap;html=1;" parent="1" vertex="1">
          <mxGeometry x="560" y="-4230" width="120" height="60" as="geometry" />
        </mxCell>
        <mxCell id="-BLUwrKhegGBMdVgift5-37" style="edgeStyle=orthogonalEdgeStyle;rounded=0;orthogonalLoop=1;jettySize=auto;html=1;entryX=1;entryY=0.5;entryDx=0;entryDy=0;" parent="1" source="-BLUwrKhegGBMdVgift5-8" target="-BLUwrKhegGBMdVgift5-12" edge="1">
          <mxGeometry relative="1" as="geometry" />
        </mxCell>
        <mxCell id="-BLUwrKhegGBMdVgift5-8" value="User Interacts" style="shape=parallelogram;perimeter=parallelogramPerimeter;whiteSpace=wrap;html=1;" parent="1" vertex="1">
          <mxGeometry x="560" y="-3940" width="120" height="60" as="geometry" />
        </mxCell>
        <mxCell id="-BLUwrKhegGBMdVgift5-20" style="edgeStyle=orthogonalEdgeStyle;rounded=0;orthogonalLoop=1;jettySize=auto;html=1;" parent="1" source="-BLUwrKhegGBMdVgift5-9" target="-BLUwrKhegGBMdVgift5-2" edge="1">
          <mxGeometry relative="1" as="geometry" />
        </mxCell>
        <mxCell id="-BLUwrKhegGBMdVgift5-9" value="Render UI: Drawer&amp;nbsp; menu" style="rounded=0;whiteSpace=wrap;html=1;" parent="1" vertex="1">
          <mxGeometry x="560" y="-4680" width="120" height="60" as="geometry" />
        </mxCell>
        <mxCell id="-BLUwrKhegGBMdVgift5-31" style="edgeStyle=orthogonalEdgeStyle;rounded=0;orthogonalLoop=1;jettySize=auto;html=1;" parent="1" source="-BLUwrKhegGBMdVgift5-10" edge="1">
          <mxGeometry relative="1" as="geometry">
            <mxPoint x="470" y="-4060" as="targetPoint" />
          </mxGeometry>
        </mxCell>
        <mxCell id="-BLUwrKhegGBMdVgift5-10" value="Render UI: &quot;owned&quot; and &quot;shopping list&quot; with + - buttons, and user owned/shopping list numbers" style="rounded=0;whiteSpace=wrap;html=1;" parent="1" vertex="1">
          <mxGeometry x="550" y="-4100" width="140" height="80" as="geometry" />
        </mxCell>
        <mxCell id="-BLUwrKhegGBMdVgift5-35" style="edgeStyle=orthogonalEdgeStyle;rounded=0;orthogonalLoop=1;jettySize=auto;html=1;entryX=1;entryY=0.5;entryDx=0;entryDy=0;" parent="1" source="-BLUwrKhegGBMdVgift5-12" target="-BLUwrKhegGBMdVgift5-13" edge="1">
          <mxGeometry relative="1" as="geometry" />
        </mxCell>
        <mxCell id="-BLUwrKhegGBMdVgift5-53" style="edgeStyle=orthogonalEdgeStyle;rounded=0;orthogonalLoop=1;jettySize=auto;html=1;entryX=0.5;entryY=1;entryDx=0;entryDy=0;" parent="1" source="-BLUwrKhegGBMdVgift5-12" target="-BLUwrKhegGBMdVgift5-16" edge="1">
          <mxGeometry relative="1" as="geometry" />
        </mxCell>
        <mxCell id="-BLUwrKhegGBMdVgift5-12" value="&lt;font style=&quot;font-size: 15px&quot;&gt;Did the user tap &quot;+&quot; or &quot;-&quot; on the &quot;owned&quot; UI?&lt;/font&gt;" style="rhombus;whiteSpace=wrap;html=1;rounded=0;shadow=0;comic=0;" parent="1" vertex="1">
          <mxGeometry x="320" y="-3982.5" width="160" height="145" as="geometry" />
        </mxCell>
        <mxCell id="-BLUwrKhegGBMdVgift5-36" style="edgeStyle=orthogonalEdgeStyle;rounded=0;orthogonalLoop=1;jettySize=auto;html=1;" parent="1" source="-BLUwrKhegGBMdVgift5-13" target="-BLUwrKhegGBMdVgift5-14" edge="1">
          <mxGeometry relative="1" as="geometry" />
        </mxCell>
        <mxCell id="-BLUwrKhegGBMdVgift5-52" style="edgeStyle=orthogonalEdgeStyle;rounded=0;orthogonalLoop=1;jettySize=auto;html=1;entryX=0.5;entryY=1;entryDx=0;entryDy=0;" parent="1" source="-BLUwrKhegGBMdVgift5-13" target="-BLUwrKhegGBMdVgift5-17" edge="1">
          <mxGeometry relative="1" as="geometry" />
        </mxCell>
        <mxCell id="-BLUwrKhegGBMdVgift5-13" value="Did the user tap &quot;+&quot; or &quot;-&quot; on the shopping list UI?" style="rhombus;whiteSpace=wrap;html=1;" parent="1" vertex="1">
          <mxGeometry x="60" y="-3990" width="160" height="160" as="geometry" />
        </mxCell>
        <mxCell id="-BLUwrKhegGBMdVgift5-38" style="edgeStyle=orthogonalEdgeStyle;rounded=0;orthogonalLoop=1;jettySize=auto;html=1;entryX=0;entryY=0.5;entryDx=0;entryDy=0;" parent="1" source="-BLUwrKhegGBMdVgift5-14" edge="1">
          <mxGeometry relative="1" as="geometry">
            <mxPoint x="340" y="-3700" as="targetPoint" />
          </mxGeometry>
        </mxCell>
        <mxCell id="-BLUwrKhegGBMdVgift5-14" value="Did the user tap on the drawer menu?" style="rhombus;whiteSpace=wrap;html=1;" parent="1" vertex="1">
          <mxGeometry x="50" y="-3770" width="180" height="140" as="geometry" />
        </mxCell>
        <mxCell id="-BLUwrKhegGBMdVgift5-56" style="edgeStyle=orthogonalEdgeStyle;rounded=0;orthogonalLoop=1;jettySize=auto;html=1;entryX=0.5;entryY=0;entryDx=0;entryDy=0;" parent="1" source="-BLUwrKhegGBMdVgift5-16" target="-BLUwrKhegGBMdVgift5-8" edge="1">
          <mxGeometry relative="1" as="geometry">
            <mxPoint x="620" y="-3950" as="targetPoint" />
            <Array as="points">
              <mxPoint x="390" y="-4150" />
              <mxPoint x="810" y="-4150" />
              <mxPoint x="810" y="-3980" />
              <mxPoint x="620" y="-3980" />
            </Array>
          </mxGeometry>
        </mxCell>
        <mxCell id="-BLUwrKhegGBMdVgift5-16" value="Increment or decrement &quot;Owned&quot; field for user" style="rounded=0;whiteSpace=wrap;html=1;" parent="1" vertex="1">
          <mxGeometry x="340" y="-4090" width="120" height="60" as="geometry" />
        </mxCell>
        <mxCell id="-BLUwrKhegGBMdVgift5-57" style="edgeStyle=orthogonalEdgeStyle;rounded=0;orthogonalLoop=1;jettySize=auto;html=1;" parent="1" source="-BLUwrKhegGBMdVgift5-17" edge="1">
          <mxGeometry relative="1" as="geometry">
            <mxPoint x="390" y="-4150" as="targetPoint" />
            <Array as="points">
              <mxPoint x="140" y="-4150" />
            </Array>
          </mxGeometry>
        </mxCell>
        <mxCell id="-BLUwrKhegGBMdVgift5-17" value="Increment or decrement &quot;Shopping list&quot; field for user" style="rounded=0;whiteSpace=wrap;html=1;" parent="1" vertex="1">
          <mxGeometry x="80" y="-4090" width="120" height="60" as="geometry" />
        </mxCell>
        <mxCell id="-BLUwrKhegGBMdVgift5-44" style="edgeStyle=orthogonalEdgeStyle;rounded=0;orthogonalLoop=1;jettySize=auto;html=1;entryX=0.5;entryY=0;entryDx=0;entryDy=0;" parent="1" source="-BLUwrKhegGBMdVgift5-40" target="-BLUwrKhegGBMdVgift5-41" edge="1">
          <mxGeometry relative="1" as="geometry">
            <mxPoint x="627.5" y="-3570" as="targetPoint" />
          </mxGeometry>
        </mxCell>
        <mxCell id="-BLUwrKhegGBMdVgift5-50" style="edgeStyle=orthogonalEdgeStyle;rounded=0;orthogonalLoop=1;jettySize=auto;html=1;entryX=0;entryY=0.5;entryDx=0;entryDy=0;" parent="1" source="-BLUwrKhegGBMdVgift5-40" target="-BLUwrKhegGBMdVgift5-42" edge="1">
          <mxGeometry relative="1" as="geometry" />
        </mxCell>
        <mxCell id="-BLUwrKhegGBMdVgift5-40" value="Is the user navigating to a new screen?" style="rhombus;whiteSpace=wrap;html=1;" parent="1" vertex="1">
          <mxGeometry x="550" y="-3760" width="155" height="120" as="geometry" />
        </mxCell>
        <mxCell id="-BLUwrKhegGBMdVgift5-41" value="Go to that screen" style="ellipse;whiteSpace=wrap;html=1;" parent="1" vertex="1">
          <mxGeometry x="567.5" y="-3550" width="120" height="80" as="geometry" />
        </mxCell>
        <mxCell id="-BLUwrKhegGBMdVgift5-47" style="edgeStyle=orthogonalEdgeStyle;rounded=0;orthogonalLoop=1;jettySize=auto;html=1;" parent="1" source="-BLUwrKhegGBMdVgift5-42" edge="1">
          <mxGeometry relative="1" as="geometry">
            <mxPoint x="870" y="-3910" as="targetPoint" />
            <Array as="points">
              <mxPoint x="870" y="-3850" />
              <mxPoint x="870" y="-3850" />
            </Array>
          </mxGeometry>
        </mxCell>
        <mxCell id="-BLUwrKhegGBMdVgift5-42" value="Is the user closing the drawer menu?" style="rhombus;whiteSpace=wrap;html=1;" parent="1" vertex="1">
          <mxGeometry x="800" y="-3765" width="140" height="130" as="geometry" />
        </mxCell>
        <mxCell id="-BLUwrKhegGBMdVgift5-48" style="edgeStyle=orthogonalEdgeStyle;rounded=0;orthogonalLoop=1;jettySize=auto;html=1;entryX=0;entryY=0.5;entryDx=0;entryDy=0;" parent="1" source="-BLUwrKhegGBMdVgift5-43" target="-BLUwrKhegGBMdVgift5-40" edge="1">
          <mxGeometry relative="1" as="geometry" />
        </mxCell>
        <mxCell id="-BLUwrKhegGBMdVgift5-43" value="Show drawer menu" style="rounded=0;whiteSpace=wrap;html=1;" parent="1" vertex="1">
          <mxGeometry x="340" y="-3730" width="120" height="60" as="geometry" />
        </mxCell>
        <mxCell id="-BLUwrKhegGBMdVgift5-58" value="" style="verticalLabelPosition=bottom;verticalAlign=top;html=1;shadow=0;dashed=0;strokeWidth=1;shape=mxgraph.android.phone2;strokeColor=#c0c0c0;rounded=0;comic=0;gradientColor=none;" parent="1" vertex="1">
          <mxGeometry x="130" y="-4910" width="360" height="710" as="geometry" />
        </mxCell>
        <mxCell id="-BLUwrKhegGBMdVgift5-59" value="" style="shape=image;html=1;verticalAlign=top;verticalLabelPosition=bottom;labelBackgroundColor=#ffffff;imageAspect=0;aspect=fixed;image=https://cdn4.iconfinder.com/data/icons/wirecons-free-vector-icons/32/menu-alt-128.png;rounded=0;shadow=0;comic=0;gradientColor=none;" parent="1" vertex="1">
          <mxGeometry x="170" y="-4823" width="40" height="40" as="geometry" />
        </mxCell>
        <mxCell id="-BLUwrKhegGBMdVgift5-60" value="Ingredient Name" style="text;html=1;strokeColor=none;fillColor=none;align=center;verticalAlign=middle;whiteSpace=wrap;rounded=0;shadow=0;comic=0;fontSize=20;" parent="1" vertex="1">
          <mxGeometry x="230" y="-4828" width="190" height="50" as="geometry" />
        </mxCell>
        <mxCell id="-BLUwrKhegGBMdVgift5-61" value="" style="verticalLabelPosition=bottom;shadow=0;dashed=0;align=center;html=1;verticalAlign=top;strokeWidth=1;shape=mxgraph.mockup.graphics.simpleIcon;strokeColor=#999999;rounded=0;comic=0;gradientColor=none;fontSize=20;strokeOpacity=92;" parent="1" vertex="1">
          <mxGeometry x="200" y="-4760" width="212.5" height="200" as="geometry" />
        </mxCell>
        <mxCell id="-BLUwrKhegGBMdVgift5-62" value="" style="shape=image;html=1;verticalAlign=top;verticalLabelPosition=bottom;labelBackgroundColor=#ffffff;imageAspect=0;aspect=fixed;image=https://cdn2.iconfinder.com/data/icons/flat-ui-icons-24-px/24/plus-24-128.png;rounded=0;shadow=0;comic=0;gradientColor=none;fontSize=20;" parent="1" vertex="1">
          <mxGeometry x="405" y="-4525" width="20" height="20" as="geometry" />
        </mxCell>
        <mxCell id="-BLUwrKhegGBMdVgift5-63" value="" style="shape=image;html=1;verticalAlign=top;verticalLabelPosition=bottom;labelBackgroundColor=#ffffff;imageAspect=0;aspect=fixed;image=https://cdn4.iconfinder.com/data/icons/ionicons/512/icon-minus-128.png;rounded=0;shadow=0;comic=0;gradientColor=none;fontSize=20;" parent="1" vertex="1">
          <mxGeometry x="335" y="-4530" width="30" height="30" as="geometry" />
        </mxCell>
        <mxCell id="-BLUwrKhegGBMdVgift5-64" value="Own:" style="text;html=1;align=center;verticalAlign=middle;resizable=0;points=[];autosize=1;fontSize=20;" parent="1" vertex="1">
          <mxGeometry x="180" y="-4530" width="60" height="30" as="geometry" />
        </mxCell>
        <mxCell id="-BLUwrKhegGBMdVgift5-66" value="0" style="text;html=1;align=center;verticalAlign=middle;resizable=0;points=[];autosize=1;fontSize=20;" parent="1" vertex="1">
          <mxGeometry x="365" y="-4530" width="30" height="30" as="geometry" />
        </mxCell>
        <mxCell id="-BLUwrKhegGBMdVgift5-72" value="&lt;div style=&quot;font-size: 18px&quot;&gt;&lt;font style=&quot;font-size: 18px&quot;&gt;Shopping List:&lt;/font&gt;&lt;/div&gt;" style="text;html=1;strokeColor=none;fillColor=none;align=center;verticalAlign=middle;whiteSpace=wrap;rounded=0;shadow=0;comic=0;fontSize=13;" parent="1" vertex="1">
          <mxGeometry x="175" y="-4485" width="140" height="50" as="geometry" />
        </mxCell>
        <mxCell id="-BLUwrKhegGBMdVgift5-78" value="" style="shape=image;html=1;verticalAlign=top;verticalLabelPosition=bottom;labelBackgroundColor=#ffffff;imageAspect=0;aspect=fixed;image=https://cdn2.iconfinder.com/data/icons/flat-ui-icons-24-px/24/plus-24-128.png;rounded=0;shadow=0;comic=0;gradientColor=none;fontSize=20;" parent="1" vertex="1">
          <mxGeometry x="405" y="-4470" width="20" height="20" as="geometry" />
        </mxCell>
        <mxCell id="-BLUwrKhegGBMdVgift5-79" value="" style="shape=image;html=1;verticalAlign=top;verticalLabelPosition=bottom;labelBackgroundColor=#ffffff;imageAspect=0;aspect=fixed;image=https://cdn4.iconfinder.com/data/icons/ionicons/512/icon-minus-128.png;rounded=0;shadow=0;comic=0;gradientColor=none;fontSize=20;" parent="1" vertex="1">
          <mxGeometry x="335" y="-4475" width="30" height="30" as="geometry" />
        </mxCell>
        <mxCell id="-BLUwrKhegGBMdVgift5-80" value="0" style="text;html=1;align=center;verticalAlign=middle;resizable=0;points=[];autosize=1;fontSize=20;" parent="1" vertex="1">
          <mxGeometry x="365" y="-4475" width="30" height="30" as="geometry" />
        </mxCell>
        <mxCell id="-BLUwrKhegGBMdVgift5-81" value="&lt;h2&gt;Description&lt;/h2&gt;" style="text;html=1;strokeColor=none;fillColor=none;align=left;verticalAlign=middle;whiteSpace=wrap;rounded=0;shadow=0;comic=0;fontSize=13;" parent="1" vertex="1">
          <mxGeometry x="180" y="-4430" width="150" height="55" as="geometry" />
        </mxCell>
        <mxCell id="-BLUwrKhegGBMdVgift5-86" value="Lorem ipsum dolor sit amet, consectetur adipiscing elit. Duis at &lt;br&gt;scelerisque nibh. Vestibulum ultrices lectus at ipsum luctus, id &lt;br&gt;vehicula neque maximus. Integer auctor porttitor erat, a..." style="text;html=1;strokeColor=none;fillColor=none;align=left;verticalAlign=middle;whiteSpace=wrap;rounded=0;shadow=0;comic=0;fontSize=13;" parent="1" vertex="1">
          <mxGeometry x="180" y="-4380" width="260" height="90" as="geometry" />
        </mxCell>
      </root>
    </mxGraphModel>
  </diagram>
</mxfile>
